<svg width="1179" height="784" viewBox="0 0 1179 784" fill="none" xmlns="http://www.w3.org/2000/svg" xmlns:xlink="http://www.w3.org/1999/xlink">
<rect width="1179" height="784" fill="#EEE8E3"/>
<path d="M564.994 230.284L552.661 241.632L552.493 241.787L552.5 242.017L556.5 363.017L556.504 363.138L556.563 363.244L556.564 363.245C556.565 363.246 556.566 363.247 556.566 363.249C556.568 363.253 556.571 363.259 556.575 363.266C556.583 363.28 556.595 363.3 556.61 363.327C556.641 363.382 556.688 363.464 556.748 363.571C556.869 363.785 557.048 364.101 557.281 364.508C557.747 365.322 558.427 366.502 559.287 367.966C561.008 370.893 563.449 374.956 566.327 379.501C572.08 388.583 579.599 399.614 586.63 407.337C600.181 422.221 621.865 436.379 640.123 446.802C649.259 452.017 657.55 456.305 663.558 459.289C666.561 460.781 668.994 461.947 670.677 462.74C671.518 463.137 672.172 463.441 672.616 463.646C672.838 463.748 673.007 463.825 673.121 463.877C673.178 463.903 673.221 463.922 673.25 463.936C673.264 463.942 673.276 463.947 673.283 463.95C673.287 463.952 673.289 463.953 673.291 463.954C673.292 463.955 673.293 463.955 673.294 463.955V463.956L673.312 463.964L673.33 463.971H673.331L673.333 463.972C673.335 463.972 673.337 463.973 673.34 463.974C673.346 463.976 673.356 463.98 673.369 463.984C673.395 463.994 673.433 464.007 673.483 464.025C673.585 464.062 673.736 464.116 673.934 464.187C674.33 464.328 674.915 464.537 675.672 464.806C677.186 465.342 679.389 466.116 682.142 467.068C687.647 468.973 695.354 471.591 704.16 474.44C721.768 480.138 743.789 486.77 761.396 490.489C775.381 493.443 793.527 495.695 808.166 497.208C815.488 497.965 821.937 498.538 826.556 498.921C828.865 499.113 830.717 499.257 831.992 499.354C832.629 499.402 833.122 499.438 833.456 499.462C833.623 499.474 833.75 499.483 833.836 499.489C833.879 499.492 833.911 499.495 833.933 499.496C833.943 499.497 833.952 499.498 833.957 499.498C833.96 499.498 833.962 499.499 833.963 499.499H833.965L834.415 499.53L834.492 499.086L837.905 479.58L1029.01 513.92L1031.98 608.5H1026.5V642.746L1019.2 648.097L1019 648.247V706.722L986.481 726.923L936.235 700.059L936.039 699.954L935.829 700.03L930.458 701.982L920.094 700.009L919.603 699.915L919.509 700.406L915.601 720.924L890.085 716.508L889.597 716.423L889.508 716.91L886.596 732.923L732.584 706.592L735.491 691.092L735.586 690.59L735.081 690.507L701.83 685.047L689.445 660.772L689.332 660.551L689.086 660.508L477.586 623.508L477.323 623.462L477.139 623.654L370.286 735.5H267.492L261.5 351.992V351.973L261.498 351.954L258.498 319.454L258.495 319.429L258.49 319.404V319.403V319.4C258.49 319.398 258.489 319.394 258.488 319.39C258.487 319.381 258.484 319.367 258.48 319.35C258.473 319.314 258.463 319.262 258.449 319.193C258.422 319.056 258.38 318.854 258.326 318.593C258.218 318.07 258.059 317.313 257.853 316.37C257.439 314.485 256.836 311.86 256.079 308.898C254.568 302.984 252.434 295.698 249.954 290.292C244.88 279.231 241.235 273.032 232.863 264.157C228.813 259.864 222.911 255.093 218.037 251.405C215.597 249.559 213.408 247.98 211.83 246.862C211.041 246.304 210.405 245.86 209.965 245.556C209.745 245.404 209.574 245.286 209.458 245.207C209.4 245.167 209.356 245.137 209.326 245.117C209.311 245.107 209.3 245.099 209.292 245.094C209.288 245.091 209.285 245.089 209.283 245.088L209.281 245.087L209.28 245.086L209.247 245.063L209.209 245.046L209.206 245.045C209.204 245.044 209.201 245.042 209.196 245.04C209.188 245.036 209.175 245.03 209.158 245.022C209.125 245.007 209.075 244.985 209.011 244.955C208.88 244.896 208.687 244.808 208.438 244.695C207.941 244.47 207.217 244.146 206.312 243.747C204.503 242.949 201.968 241.854 199.067 240.665C193.273 238.289 185.997 235.528 180.125 234.016C174.013 232.441 166.097 231.689 159.731 231.329C156.544 231.149 153.736 231.067 151.726 231.029C150.72 231.011 149.914 231.004 149.358 231.001C149.206 231 149.073 230.999 148.959 230.999L147.503 213.523L159.92 143.991L419.011 138.5L419.42 138.491L419.492 138.089L434.422 54.9785L561.011 48.5244L564.994 230.284Z" fill="#EFE3E3" stroke="#FF94E0"/>
<path d="M477.5 618.684L539 594L550.5 592L558 567.5L641.5 610.5L621.5 649L536.099 633L477.5 623.62V618.684Z" fill="#F2D3E2"/>
<path d="M227.5 142V152.5H329V209L264.5 211.5L266 243L206.5 244C206.5 244 189.847 236.465 178.5 234C167.012 231.505 148.5 231.5 148.5 231.5L147 213.5L159.5 143.5L227.5 142Z" fill="#F2D3E2"/>
<path d="M328 152.5L365.5 151.5V155.5H381L382 163.5H451.5V209.445H414V218L381 238L363 208L346 208.61L328 209.221V152.5Z" fill="#F2D3E2"/>
<path d="M469.5 74L562.5 72L565.5 230.5L553 242L553.246 254.5H505.5L507 209H450.5V137.08L461.5 136.5L469.5 131.5V74Z" fill="#F2D3E2"/>
<path d="M413 217.5V208.5H453L507 208L506.5 255L420 255.5L409.5 266L411.5 287.5L381 237L413 217.5Z" fill="#F2D3E2"/>
<path d="M263.5 501L340.5 498.5L348.5 491.5L414 553L467 498L512.5 543.5L547.5 560L539.5 594.5L478 619.5V623L370 736.5H267L263.5 501Z" fill="#F2D3E2"/>
<path d="M430.5 462.5L467.5 499L414 554.5L376.5 519L430.5 462.5Z" fill="#F2D3E2"/>
<path d="M402.5 434.5L431.5 463.5L377 519.5L348 492.5L402.5 434.5Z" fill="#F2D3E2"/>
<path d="M352.5 385.5L376.5 409L339.5 447.5L302.5 411.5L335 391L345 385.5H352.5Z" fill="#F2D3E2"/>
<path d="M375.5 408.5L403 435.5L349 492.5L341 499.5L263.5 501.5L263 469L320 466.5L375.5 408.5Z" fill="#F2D3E2"/>
<path d="M287.5 365.5L312.5 351.5L331.5 384.5L287.5 410V365.5Z" fill="#F2D3E2"/>
<path d="M266.214 241.979L267 274L270.5 280.5L250 292C250 292 246.662 283.527 243.5 278.5C240.381 273.541 238.413 270.859 234.5 266.5C229.603 261.046 226.23 258.571 220.5 254C214.698 249.371 205 243 205 243L266.214 241.979Z" fill="#F2D3E2"/>
<path d="M258.5 325L265 318L274.5 316L286.5 308.5L313 352L287.5 366.5H261V352L258.5 325Z" fill="#F2D3E2"/>
<path d="M485.5 294H554.5L557 363.5H509L472 397.5L449 367.5L427 337L440.5 327.5H485.5V294Z" fill="#F2D3E2"/>
<path d="M650.5 614.5L680.5 622.5L673.5 657.5L631 650.5L637.5 630.5L650.5 614.5Z" fill="#F2D3E2"/>
<path d="M712.526 630.842L745 639.5L736 691L703.526 685.842L712.526 630.842Z" fill="#F2D3E2"/>
<path d="M679.508 622.5L713.508 631L704.508 686L701.5 685.5L688.965 661.216L671.965 658.216L679.508 622.5Z" fill="#F2D3E2"/>
<path d="M744 639L775.5 647L771.5 664.5L764.5 663.5L758.5 693L780.5 697L777 714.5L732 707L744 639Z" fill="#F2D3E2"/>
<path d="M808 655.5L865 670V682L857 728L776 714.5L779.5 697L793.5 699L792 707.5L800 708.5L808 655.5Z" fill="#F2D3E2"/>
<path d="M864 681.5L952.5 681L953 688.5L936.282 700.5L930.5 702.5L920 700.5L916 721.5L890 717L887 733.5L855.5 728L864 681.5Z" fill="#F2D3E2"/>
<path d="M951.5 681L983.5 680.5L982.5 650.5L993 637L1004 654L1019.5 647.5V707L986.5 727.5L935 700L952 688L951.5 681Z" fill="#F2D3E2"/>
<path d="M981 559.5H1031L1032.5 608.5H1027V616.5H997L982 613L981 559.5Z" fill="#F2D3E2"/>
<path d="M288 232H342L356.5 255.5L311 282.5L288 246.5V232Z" fill="#F1D9E2"/>
<path d="M884.5 583L961.5 582.5L962 660L885.5 661L884.5 583Z" fill="#F1D9E2"/>
<path d="M834.5 512.5L789.5 508L779 568C779 568 792.689 570.028 801.5 571C810.462 571.988 824.5 573 824.5 573L834.5 512.5Z" fill="#F2D3E2"/>
<path d="M790.5 508L746.5 499L735 561C735 561 748.003 563.547 756.5 565C765.597 566.555 780 568.5 780 568.5L790.5 508Z" fill="#F2D3E2"/>
<path d="M700 493.5L723.5 498L724.5 492L747.5 499L736 561C736 561 722.217 557.916 713.5 555.5C704.632 553.042 691 548.5 691 548.5L700 493.5Z" fill="#F2D3E2"/>
<path d="M661.5 488L692.5 493L681.5 545.5C681.5 545.5 672.587 542.658 667 540.5C661.451 538.357 653 534.5 653 534.5L661.5 488Z" fill="#F2D3E2"/>
<path d="M646 476L664 480.5L654 535L638 527.5L624 520L646 476Z" fill="#F2D3E2"/>
<path d="M603 435L653.5 463L625 520.5C625 520.5 607.147 510.748 596 504C584.88 497.268 568 486 568 486L603 435Z" fill="#F2D3E2"/>
<path d="M556.5 362.5L565 376.5H549L556 407L517 445.5C517 445.5 501.651 431.28 492.5 421.5C483.702 412.097 471 396.5 471 396.5L508.5 362.5H556.5Z" fill="#F2D3E2"/>
<path d="M555 406.5L571.5 407L587.5 422.5L548 472C548 472 537.812 463.93 531.5 458.5C525.316 453.181 516 444.5 516 444.5L555 406.5Z" fill="#F2D3E2"/>
<path d="M586.5 422L604 435.5L569 486.5L547 471.5L586.5 422Z" fill="#F2D3E2"/>
<path d="M833.5 512.5L845.5 513L849 491.5L900.5 501.5L896.5 521.5V563L863.5 563.5V575.5L823.5 572.5L833.5 512.5Z" fill="#F2D3E2"/>
<path d="M900 501L948 509.5L949 562H896V521.5L900 501Z" fill="#F2D3E2"/>
<path d="M947.5 509.5L972 514V561.5H947.5V509.5Z" fill="#F2D3E2"/>
<path d="M359 364L405.5 337.5C405.5 337.5 436.8 386.422 461 414.5C485.702 443.159 530.5 482 530.5 482C530.5 482 525.595 493.328 525.5 501C525.401 509.05 530.5 521 530.5 521L525.5 526.5C525.5 526.5 473.521 478.24 441 446.5C408.491 414.772 359 364 359 364Z" fill="#F1D9E2"/>
<path d="M864 597.923V650.352L661.595 597.14L665.39 580.536C665.623 580.554 665.94 580.577 666.322 580.595C667.165 580.634 668.33 580.657 669.616 580.587C672.155 580.449 675.292 579.947 677.305 578.396C679.303 576.857 680.591 573.974 681.377 571.575C681.775 570.36 682.053 569.239 682.232 568.421C682.307 568.082 682.364 567.795 682.405 567.574L864 597.923Z" fill="#EEE8E3" stroke="#FF94E0"/>
<path d="M564.994 230.284L552.661 241.632L552.493 241.787L552.5 242.017L556.5 363.017L556.504 363.138L556.563 363.244L556.564 363.245C556.565 363.246 556.566 363.247 556.566 363.249C556.568 363.253 556.571 363.259 556.575 363.266C556.583 363.28 556.595 363.3 556.61 363.327C556.641 363.382 556.688 363.464 556.748 363.571C556.869 363.785 557.048 364.101 557.281 364.508C557.747 365.322 558.427 366.502 559.287 367.966C561.008 370.893 563.449 374.956 566.327 379.501C572.08 388.583 579.599 399.614 586.63 407.337C600.181 422.221 621.865 436.379 640.123 446.802C649.259 452.017 657.55 456.305 663.558 459.289C666.561 460.781 668.994 461.947 670.677 462.74C671.518 463.137 672.172 463.441 672.616 463.646C672.838 463.748 673.007 463.825 673.121 463.877C673.178 463.903 673.221 463.922 673.25 463.936C673.264 463.942 673.276 463.947 673.283 463.95C673.287 463.952 673.289 463.953 673.291 463.954C673.292 463.955 673.293 463.955 673.294 463.955V463.956L673.312 463.964L673.33 463.971H673.331L673.333 463.972C673.335 463.972 673.337 463.973 673.34 463.974C673.346 463.976 673.356 463.98 673.369 463.984C673.395 463.994 673.433 464.007 673.483 464.025C673.585 464.062 673.736 464.116 673.934 464.187C674.33 464.328 674.915 464.537 675.672 464.806C677.186 465.342 679.389 466.116 682.142 467.068C687.647 468.973 695.354 471.591 704.16 474.44C721.768 480.138 743.789 486.77 761.396 490.489C775.381 493.443 793.527 495.695 808.166 497.208C815.488 497.965 821.937 498.538 826.556 498.921C828.865 499.113 830.717 499.257 831.992 499.354C832.629 499.402 833.122 499.438 833.456 499.462C833.623 499.474 833.75 499.483 833.836 499.489C833.879 499.492 833.911 499.495 833.933 499.496C833.943 499.497 833.952 499.498 833.957 499.498C833.96 499.498 833.962 499.499 833.963 499.499H833.965L834.415 499.53L834.492 499.086L837.905 479.58L1029.01 513.92L1031.98 608.5H1026.5V642.746L1019.2 648.097L1019 648.247V706.722L986.481 726.923L936.235 700.059L936.039 699.954L935.829 700.03L930.458 701.982L920.094 700.009L919.603 699.915L919.509 700.406L915.601 720.924L890.085 716.508L889.597 716.423L889.508 716.91L886.596 732.923L732.584 706.592L735.491 691.092L735.586 690.59L735.081 690.507L701.83 685.047L689.445 660.772L689.332 660.551L689.086 660.508L477.586 623.508L477.323 623.462L477.139 623.654L370.286 735.5H267.492L261.5 351.992V351.973L261.498 351.954L258.498 319.454L258.495 319.429L258.49 319.404V319.403V319.4C258.49 319.398 258.489 319.394 258.488 319.39C258.487 319.381 258.484 319.367 258.48 319.35C258.473 319.314 258.463 319.262 258.449 319.193C258.422 319.056 258.38 318.854 258.326 318.593C258.218 318.07 258.059 317.313 257.853 316.37C257.439 314.485 256.836 311.86 256.079 308.898C254.568 302.984 252.434 295.698 249.954 290.292C244.88 279.231 241.235 273.032 232.863 264.157C228.813 259.864 222.911 255.093 218.037 251.405C215.597 249.559 213.408 247.98 211.83 246.862C211.041 246.304 210.405 245.86 209.965 245.556C209.745 245.404 209.574 245.286 209.458 245.207C209.4 245.167 209.356 245.137 209.326 245.117C209.311 245.107 209.3 245.099 209.292 245.094C209.288 245.091 209.285 245.089 209.283 245.088L209.281 245.087L209.28 245.086L209.247 245.063L209.209 245.046L209.206 245.045C209.204 245.044 209.201 245.042 209.196 245.04C209.188 245.036 209.175 245.03 209.158 245.022C209.125 245.007 209.075 244.985 209.011 244.955C208.88 244.896 208.687 244.808 208.438 244.695C207.941 244.47 207.217 244.146 206.312 243.747C204.503 242.949 201.968 241.854 199.067 240.665C193.273 238.289 185.997 235.528 180.125 234.016C174.013 232.441 166.097 231.689 159.731 231.329C156.544 231.149 153.736 231.067 151.726 231.029C150.72 231.011 149.914 231.004 149.358 231.001C149.206 231 149.073 230.999 148.959 230.999L147.503 213.523L159.92 143.991L419.011 138.5L419.42 138.491L419.492 138.089L434.422 54.9785L561.011 48.5244L564.994 230.284Z" stroke="#FF94E0"/>
<path d="M227.5 142V152.5H329V209" stroke="#FF94E0"/>
<path d="M328 152.5L365.5 151.5V155.5H381L382 163.5H450.5M363.5 207L381 238L414 218V209.445H451.5" stroke="#FF94E0"/>
<path d="M561.5 72L469.5 74V131.5L461.5 136.5L450.5 137.08V209" stroke="#FF94E0"/>
<path d="M381 238L411.5 287.5L409.5 266L420 255.5L506.5 255L507 208L450.5 209.5" stroke="#FF94E0"/>
<path d="M363.5 207L264 210.5L266 274L335 392L345 386.5H352L512 544L546.5 561L651 616L864 671V682.5L984.5 681.5L983.5 650L982 561L862.5 562.5V574.5C862.5 574.5 773.631 571.004 720.5 556.5C668.781 542.382 640.307 529.856 594.5 502C552.941 476.728 531.033 459.25 497 424.5C466.636 393.496 428.5 337 428.5 337L441.5 328H486.5V295H554.5M553.5 254L506.5 255" stroke="#FF94E0"/>
<path d="M263.5 501L340.5 498.5L348.5 491.5L414 553L466 499M478 623V619.5L539.5 594.5" stroke="#FF94E0"/>
<path d="M539.5 594.5L546.5 560" stroke="#FF94E0"/>
<path d="M430 463L377 518.5" stroke="#FF94E0"/>
<path d="M401.5 435L348.5 491.5" stroke="#FF94E0"/>
<path d="M339 447L302.5 411.5L335 391" stroke="#FF94E0"/>
<path d="M375 409L320 466.5L263 469" stroke="#FF94E0"/>
<path d="M311.5 351.5L300 358.5L287.5 365.5V410L330.5 384.5" stroke="#FF94E0"/>
<path d="M265 242L205 243M270.5 280.5L260.25 286.25L250 292" stroke="#FF94E0"/>
<path d="M258.5 325L265 318L274.5 316L286.5 308.5M287.5 366.5H261" stroke="#FF94E0"/>
<path d="M539.5 593.5L550 592L558 567L640.5 610.5L621 649" stroke="#FF94E0"/>
<path d="M650.5 614.5L637.5 630.5L631 650.5M680.5 622.5L673.5 657.5" stroke="#FF94E0"/>
<path d="M712.526 630.842L703.526 685.842" stroke="#FF94E0"/>
<path d="M744 639L732 707M775.5 647L771.5 664.5L764.5 663.5L758.5 693L780.5 697" stroke="#FF94E0"/>
<path d="M808 655.5L800 708.5L792 707.5L793.5 699L779.5 697L776 714.5" stroke="#FF94E0"/>
<path d="M864.5 681.5L855.5 728M952.5 681L953 688.5L936 700" stroke="#FF94E0"/>
<path d="M1019.5 647.5L1004 654L993 637L983 650" stroke="#FF94E0"/>
<path d="M981.037 561.5H1031.04M1027 616.5H997L982 613" stroke="#FF94E0"/>
<path d="M341.721 232.5L355.807 255.33L311.16 281.823L288.5 246.354V232.5H341.721Z" fill="#EEE8E3" stroke="#FF94E0"/>
<path d="M961.496 659.506L885.993 660.493L885.006 583.496L961.003 583.003L961.496 659.506Z" fill="#EEE8E3" stroke="#FF94E0"/>
<path d="M790 508.5L834.5 513L824.5 573" stroke="#FF94E0"/>
<path d="M747 499.5L790.5 508.5L780 568.5" stroke="#FF94E0"/>
<path d="M736 561L747.5 499.5L724.5 492L723.5 498L700 493.5L691 548.5" stroke="#FF94E0"/>
<path d="M661.5 488L692.5 493L681.5 545.5" stroke="#FF94E0"/>
<path d="M663.423 480.871L653.624 534.271L638.217 527.049L624.664 519.788L646.268 476.582L663.423 480.871Z" stroke="#FF94E0"/>
<path d="M603 435L653.5 463L646.5 476.5" stroke="#FF94E0"/>
<path d="M556.5 362.5H508.5L471 396.5M517 445.5L556 407L552.5 391.75L549 376.5H565" stroke="#FF94E0"/>
<path d="M555 406.5L571.5 407L587.5 422.5L548 472" stroke="#FF94E0"/>
<path d="M587.5 422.5L604 435.5L569 486.5" stroke="#FF94E0"/>
<path d="M834 513H845.5L849 491.5L900.5 501L896.5 521.5V563" stroke="#FF94E0"/>
<path d="M900 501L948 509.5" stroke="#FF94E0"/>
<path d="M972 561.5V514L947.5 509.5V561.5" stroke="#FF94E0"/>
<path d="M405.438 338.327C405.673 338.693 406.021 339.232 406.473 339.929C407.376 341.322 408.695 343.345 410.352 345.858C413.665 350.886 418.336 357.881 423.764 365.755C434.615 381.498 448.503 400.766 460.621 414.826C472.991 429.178 490.383 446.068 504.673 459.363C511.819 466.012 518.193 471.766 522.781 475.856C525.075 477.902 526.923 479.532 528.197 480.65C528.834 481.21 529.328 481.642 529.662 481.934C529.752 482.012 529.832 482.08 529.898 482.139C529.877 482.19 529.853 482.248 529.827 482.311C529.692 482.638 529.499 483.114 529.267 483.708C528.803 484.896 528.183 486.561 527.561 488.468C526.32 492.267 525.048 497.078 525 500.994C524.949 505.104 526.221 510.168 527.486 514.17C528.121 516.178 528.758 517.933 529.237 519.186C529.477 519.812 529.678 520.314 529.818 520.659C529.855 520.75 529.888 520.83 529.916 520.898L525.47 525.789C525.405 525.728 525.331 525.66 525.249 525.584C524.86 525.223 524.286 524.689 523.544 523.998C522.059 522.617 519.901 520.608 517.211 518.098C511.83 513.078 504.317 506.054 495.788 498.038C478.729 482.006 457.606 462.009 441.35 446.143C425.099 430.282 404.601 409.66 388.165 393.001C379.948 384.672 372.746 377.334 367.599 372.079C365.025 369.452 362.964 367.345 361.548 365.895C360.84 365.169 360.292 364.608 359.922 364.229C359.882 364.188 359.845 364.15 359.81 364.113L405.336 338.169C405.367 338.217 405.401 338.27 405.438 338.327Z" fill="#EEE8E3" stroke="#FF94E0"/>
<rect x="376.184" y="345.77" width="24" height="7" transform="rotate(-30.2381 376.184 345.77)" fill="#F1D9E2" stroke="#FF94E0"/>
<rect x="597.491" y="536.844" width="28.5251" height="10.0435" transform="rotate(12.0834 597.491 536.844)" fill="#F1D9E2" stroke="#FF94E0"/>
<path d="M549.394 502.094L548.137 504.604L527.311 512.838C527.284 512.752 527.253 512.655 527.219 512.55C527.063 512.053 526.85 511.357 526.626 510.562C526.176 508.967 525.686 506.998 525.497 505.44C525.125 502.374 525.09 500.615 525.496 497.566C525.889 494.61 526.38 492.98 527.466 490.18C528.052 488.669 529.037 486.821 529.884 485.337C530.306 484.598 530.691 483.954 530.97 483.496C531.012 483.428 531.051 483.365 531.087 483.305L549.394 502.094Z" fill="#F1D9E2" stroke="#FF94E0"/>
<path d="M531.786 519.047L531.546 518.71L527.281 512.733L548.219 504.644L549.035 506.686L549.043 506.704L549.053 506.723L549.972 508.562L543.168 538.626L524.288 526.876L531.786 519.047Z" fill="#F2D3E2" stroke="#FF94E0"/>
<rect x="642.794" y="579.22" width="20.7549" height="13.5409" transform="rotate(12.0834 642.794 579.22)" fill="#F1D9E2" stroke="#FF94E0"/>
<path d="M681.05 573.061C681.048 573.065 681.047 573.069 681.045 573.073C681.031 573.097 681.009 573.133 680.982 573.18C680.926 573.273 680.845 573.409 680.74 573.577C680.53 573.912 680.229 574.372 679.866 574.871C679.128 575.883 678.176 576.994 677.237 577.575C676.444 578.066 675.262 578.426 674.237 578.665C673.733 578.783 673.28 578.868 672.954 578.924C672.791 578.951 672.66 578.972 672.57 578.985C672.567 578.986 672.563 578.985 672.56 578.986L657.258 573.017L663.366 560.943L682.843 568.774L681.05 573.061Z" fill="#F1D9E2"/>
<path d="M681.05 573.061C681.048 573.065 681.047 573.069 681.045 573.073C681.031 573.097 681.009 573.133 680.982 573.18C680.926 573.273 680.845 573.409 680.74 573.577C680.53 573.912 680.229 574.372 679.866 574.871C679.128 575.883 678.176 576.994 677.237 577.575C676.444 578.066 675.262 578.426 674.237 578.665C673.733 578.783 673.28 578.868 672.954 578.924C672.791 578.951 672.66 578.972 672.57 578.985C672.567 578.986 672.563 578.985 672.56 578.986L657.258 573.017L663.366 560.943L682.843 568.774L681.05 573.061Z"/>
<path d="M681.05 573.061C681.048 573.065 681.047 573.069 681.045 573.073C681.031 573.097 681.009 573.133 680.982 573.18C680.926 573.273 680.845 573.409 680.74 573.577C680.53 573.912 680.229 574.372 679.866 574.871C679.128 575.883 678.176 576.994 677.237 577.575C676.444 578.066 675.262 578.426 674.237 578.665C673.733 578.783 673.28 578.868 672.954 578.924C672.791 578.951 672.66 578.972 672.57 578.985C672.567 578.986 672.563 578.985 672.56 578.986L657.258 573.017L663.366 560.943L682.843 568.774L681.05 573.061Z" stroke="#FF94E0"/>
<rect x="841.949" y="587.568" width="16" height="6" transform="rotate(8.44036 841.949 587.568)" fill="#F1D9E2" stroke="#FF94E0"/>
<rect x="872" y="601.5" width="22" height="7" transform="rotate(90 872 601.5)" fill="#F1D9E2" stroke="#FF94E0"/>
<rect x="968" y="601.5" width="39" height="7" transform="rotate(90 968 601.5)" fill="#F1D9E2" stroke="#FF94E0"/>
</svg>
