<svg width="1179" height="784" viewBox="0 0 1179 784" fill="none" xmlns="http://www.w3.org/2000/svg">
<rect width="1179" height="784" fill="#EEE8E3"/>
<path d="M439 81.5V155.5H424.5V203.5H594.394L591.509 218.405L591.39 219.021L592.017 219L694.403 215.521L660.507 414.916L660.422 415.415L660.922 415.494L1066.42 479.415L1049.58 579H1043V614.252L1034.7 620.603L1034.5 620.753V669.216L988.982 696.428L945.729 674.056L945.514 673.944L945.293 674.045L939.934 676.48L931.587 675.008L931.076 674.918L931.005 675.431L928.075 696.423L807.581 676.507L807.09 676.426L807.007 676.917L801.077 711.998L245.494 710.501L241 310.494L240.994 310H94.0791L127.433 81.5H439Z" fill="#EFE3E3" stroke="#FF94E0"/>
<path d="M404.799 415.513L359.286 463.5H339.717L326.168 448.983L331.382 442.823L331.672 442.479L331.361 442.154L310.2 420.009L359.502 371.201L404.799 415.513Z" fill="#F1D9E2" stroke="#FF94E0"/>
<path d="M547.292 319.507L468.507 399.778L444.691 374.504L522.008 294.709L547.292 319.507Z" fill="#F1D9E2" stroke="#FF94E0"/>
<path d="M570.8 343L491.994 423.787L468.203 399.996L547.499 319.214L570.8 343Z" fill="#F1D9E2" stroke="#FF94E0"/>
<path d="M585.298 357.494L570.646 372.146L570.296 372.497L570.644 372.851L601.304 404.006L543.952 464.324L492.246 423.451L570.999 342.718L585.298 357.494Z" fill="#F1D9E2" stroke="#FF94E0"/>
<path d="M520.532 273L521.985 294.812L445.033 374.246L424.168 348.529L497.711 273H520.532Z" fill="#F1D9E2" stroke="#FF94E0"/>
<path d="M520.5 205.5V273H497.789L497.642 273.151L424.057 348.724L402.651 319.048L446.857 273.85L447 273.704V266H458.5V244.5H443V205.5H520.5Z" fill="#F1D9E2" stroke="#FF94E0"/>
<path d="M345.5 88.5V101.5H363V112H356.5V156.5H332.359L332.239 156.573L249.859 207H233.732L202.551 169.879L205.482 159.132L205.66 158.48L204.985 158.5L135.953 160.486L129.051 88.5H345.5Z" fill="#F1D9E2" stroke="#FF94E0"/>
<path d="M392 112V118H435.513L436.486 155.5H424.5V206H442.5V216H416.856L416.734 216.076L391.675 231.799L364.434 184.251L364.353 184.109L364.202 184.043L342.856 174.61L332.848 156.5H356.5V112H392Z" fill="#F1D9E2" stroke="#FF94E0"/>
<path d="M595.456 448.697L587.639 492.673L543.779 464.407L575.038 431.683L595.456 448.697Z" fill="#F1D9E2" stroke="#FF94E0"/>
<path d="M632.417 440.924L620.128 510.229L597.056 497.732L607.906 437.56L632.417 440.924Z" fill="#F1D9E2" stroke="#FF94E0"/>
<path d="M668.449 447.257L655.141 525.633L620.087 510.052L632.431 440.929L668.449 447.257Z" fill="#F1D9E2" stroke="#FF94E0"/>
<path d="M702.421 453.4L687.61 537.329L655.062 525.67L668.408 447.083L702.421 453.4Z" fill="#F1D9E2" stroke="#FF94E0"/>
<path d="M741.417 502.902L732.609 550.364L687.573 537.147L695.401 494.58L741.417 502.902Z" fill="#F1D9E2" stroke="#FF94E0"/>
<path d="M787.422 510.908L779.093 558.919L732.582 550.596L741.4 503.075L787.422 510.908Z" fill="#F1D9E2" stroke="#FF94E0"/>
<path d="M810.913 514.421L802.095 562.435L779.08 559.078L787.409 511.063L810.913 514.421Z" fill="#F1D9E2" stroke="#FF94E0"/>
<path d="M911.396 484.918L906.012 509.393L905.997 509.459L906.001 509.527L906.973 527.519L868 528.98V512.818L881.42 514.993L881.905 515.072L881.992 514.588L887.906 481.562L911.396 484.918Z" fill="#F1D9E2" stroke="#FF94E0"/>
<path d="M840.926 507.913L831.581 564.964L802.087 562.546L810.492 515.087L810.582 514.581L810.073 514.506L797.054 512.576L798.434 501.075L840.926 507.913Z" fill="#F1D9E2" stroke="#FF94E0"/>
<path d="M874.394 449.407L868.013 477.389L867.896 477.901L868.414 477.992L887.914 481.404L881.598 514.935L868.573 513.006L868 512.921V529H837.587L850.915 445.573L874.394 449.407Z" fill="#F1D9E2" stroke="#FF94E0"/>
<path d="M937.423 468.894L934.008 488.414L934 488.457V527.5H906.973L906.002 510.039L915.884 464.586L937.423 468.894Z" fill="#F1D9E2" stroke="#FF94E0"/>
<path d="M966.421 463.423L961.007 495.417L961 495.458V527.5H934V488.543L938.911 459.562L966.421 463.423Z" fill="#F1D9E2" stroke="#FF94E0"/>
<path d="M986.903 466.908L980.511 497.397L980.402 497.913L980.923 497.994L1002.93 501.417L999.069 526.016L961 527.479V495.542L966.41 463.572L986.903 466.908Z" fill="#F1D9E2" stroke="#FF94E0"/>
<path d="M1048 509.416L1048.99 579H1043V586H1011.55L999.496 583.589L999 526.037L1002.91 501.084L1048 509.416Z" fill="#F1D9E2" stroke="#FF94E0"/>
<path d="M920.5 614.553L920.056 614.503L893.5 611.552V551.006L975.507 551.993L976.491 619.941L935.554 615.503L935.05 615.448L935.002 615.952L934.045 626H920.5V614.553Z" fill="#F1D9E2" stroke="#FF94E0"/>
<path d="M994.274 693.344L988.986 696.429L945.979 673.947L959.936 664.643L962.852 667.559L963.132 667.482L973.795 664.574L994.274 693.344Z" fill="#F1D9E2" stroke="#FF94E0"/>
<path d="M942.687 656.5L949.843 671.29L940.41 676.478L931.582 675.007L931.087 674.924L931.007 675.42L927.587 696.422L899.062 691.587L903.936 656.5H942.687Z" fill="#F1D9E2" stroke="#FF94E0"/>
<path d="M858.86 639.98L903.949 656.331L899.075 691.425L806.575 676.585L814.405 629.607L858.86 639.98Z" fill="#F1D9E2" stroke="#FF94E0"/>
<path d="M802.916 625.37L799.11 644.395L766.071 636.621L769.402 617.113L802.916 625.37Z" fill="#F1D9E2" stroke="#FF94E0"/>
<path d="M769.423 616.879L755.582 693.5H731.105L746.893 611.605L769.423 616.879Z" fill="#F1D9E2" stroke="#FF94E0"/>
<path d="M746.917 611.379L731.085 693.508L708.596 693.986L723.901 606.104L746.917 611.379Z" fill="#F1D9E2" stroke="#FF94E0"/>
<path d="M723.927 606.362L707.582 697.992L678.509 697.5L678 697.491V700.507L611.606 701.49L618.892 663.609L640.881 668.985L641.405 669.113L641.493 668.582L654.902 587.627L723.927 606.362Z" fill="#F1D9E2" stroke="#FF94E0"/>
<path d="M643.894 584.988L654.931 587.387L641.594 669.383L618.573 663.627L632.901 582.599L643.894 584.988Z" fill="#F1D9E2" stroke="#FF94E0"/>
<path d="M621.883 579.985V579.986L621.894 579.988L632.923 582.386L613.596 690.913L591.076 686.601L609.902 577.11L621.883 579.985Z" fill="#F1D9E2" stroke="#FF94E0"/>
<path d="M609.928 576.873L591.092 686.417L533.589 676.008L533.111 675.922L533.011 676.396L527.595 702H501.5V599.56L522.943 601.997L523.166 602.022L523.332 601.873L564.135 565.548L609.928 576.873Z" fill="#F1D9E2" stroke="#FF94E0"/>
<path d="M501.5 691H454.5V620.356L501.5 604.2V691Z" fill="#F1D9E2" stroke="#FF94E0"/>
<path d="M454.5 620.5V691.5H409.49L408.011 620.5H454.5Z" fill="#F1D9E2" stroke="#FF94E0"/>
<path d="M453.782 463.51L404 513.293L379.201 488.494L427.515 438.702L453.782 463.51Z" fill="#F1D9E2" stroke="#FF94E0"/>
<path d="M339.297 514L355.5 529.711V552.5H311.5V514H339.297Z" fill="#F1D9E2" stroke="#FF94E0"/>
<path d="M323.785 462.5L333 472.199V490.5H309V462.5H323.785Z" fill="#F1D9E2" stroke="#FF94E0"/>
<path d="M333 472.301L332.863 472.156L323.863 462.656L323.715 462.5H309V443.371L318.346 440.567L339.635 463.342L339.783 463.5H359.213L359.361 463.346L405.007 415.714L427.798 438.505L379.641 488.152L379.298 488.505L386.301 495.508L366.286 516.5H359.207L333 490.293V472.301Z" fill="#F1D9E2" stroke="#FF94E0"/>
<path d="M491.787 500.499L459.795 532H452.481L452.5 532.518L453.481 560.008L392.126 560.997L374.463 551.185L371.026 524.674L386.005 509.212L395.793 519H410V507.207L454.002 463.204L491.787 500.499Z" fill="#F1D9E2" stroke="#FF94E0"/>
<path d="M483 580.5V592.647L451.412 604H407.108L373.5 588.678V580.5H483Z" fill="#F1D9E2" stroke="#FF94E0"/>
<path d="M408.007 620.848L409.489 691.51L338.488 692.989L336.511 604.48L362.417 603.503L408.007 620.848Z" fill="#F1D9E2" stroke="#FF94E0"/>
<path d="M336.504 603.708L338.488 693H294.5V603.696L315.008 581.723L336.504 603.708Z" fill="#F1D9E2" stroke="#FF94E0"/>
<path d="M297 491.306L291.632 497.162L291.5 497.306V562.734L291.681 562.885L314.768 582.042L294.638 603.155L294.5 603.3V641.5H256.5V465.153L297 464.508V491.306Z" fill="#F1D9E2" stroke="#FF94E0"/>
<path d="M503.979 512.199L502.518 528.276L471.791 559.5H453.483L452.519 532H459.705L459.851 531.856L491.511 500.689L503.979 512.199Z" fill="#F1D9E2" stroke="#FF94E0"/>
<path d="M359.783 371.005L310.001 420.294L280.707 391H263V364.779L306.425 338.132L309.434 341.141L309.773 340.919L320.939 333.636L359.783 371.005Z" fill="#F1D9E2" stroke="#FF94E0"/>
<path d="M303.815 331.331L262.5 356.607V323H243.5V304.803L277.313 287.161L303.815 331.331Z" fill="#F1D9E2" stroke="#FF94E0"/>
<path d="M264.699 263.5L277.321 287.287L242.959 304.959L236 302.639V263.5H264.699Z" fill="#F1D9E2" stroke="#FF94E0"/>
<path d="M153.637 179.94L137.465 177.562L136.041 160.479L159.333 159.527L153.637 179.94Z" fill="#F1D9E2" stroke="#FF94E0"/>
<path d="M445.812 274.5L402.583 318.699L386.708 293.685L422.127 274.5H445.812Z" stroke="#FF94E0"/>
<rect x="390.286" y="367.777" width="12" height="20" transform="rotate(-41.345 390.286 367.777)" fill="#F1D9E2" stroke="#FF94E0"/>
<rect x="411.707" y="391.139" width="12" height="20" transform="rotate(-44.6403 411.707 391.139)" fill="#F1D9E2" stroke="#FF94E0"/>
<rect x="370.871" y="342.562" width="12" height="20" transform="rotate(-41.6903 370.871 342.562)" fill="#F1D9E2" stroke="#FF94E0"/>
<rect x="277.68" y="237.503" width="12" height="88.7686" transform="rotate(-29.0322 277.68 237.503)" fill="#F1D9E2" stroke="#FF94E0"/>
<path d="M317.895 216.121L345.773 245.954L340.302 250.513L303.249 253.149L290.685 230.512L317.895 216.121Z" fill="#F1D9E2" stroke="#FF94E0"/>
<path d="M342.892 203.117L356.051 217.252L359.012 227.614L364.883 255.499L354.296 255.5L348.439 244.761L348.411 244.71L348.372 244.666L339.372 234.635L339.369 234.632L320.812 214.424L342.892 203.117Z" fill="#F1D9E2" stroke="#FF94E0"/>
<path d="M366.1 258L369.464 272.896L364.151 280.623L330.472 299.963L309.5 262.179L309.499 258L366.1 258Z" fill="#F1D9E2" stroke="#FF94E0"/>
<rect x="441.707" y="421.257" width="12" height="50.6909" transform="rotate(-45.4409 441.707 421.257)" fill="#F1D9E2" stroke="#FF94E0"/>
<rect x="490.707" y="467.257" width="12" height="21.045" transform="rotate(-45.4409 490.707 467.257)" fill="#F1D9E2" stroke="#FF94E0"/>
<rect x="519.707" y="493.257" width="12" height="21.045" transform="rotate(-45.4409 519.707 493.257)" fill="#F1D9E2" stroke="#FF94E0"/>
<rect x="553.425" y="520.642" width="12" height="21.045" transform="rotate(-52.1301 553.425 520.642)" fill="#F1D9E2" stroke="#FF94E0"/>
<rect x="510.897" y="579.984" width="18.972" height="27.1052" transform="rotate(-135 510.897 579.984)" fill="#F1D9E2" stroke="#FF94E0"/>
<rect x="588.711" y="542.684" width="12" height="21.045" transform="rotate(-68.7878 588.711 542.684)" fill="#F1D9E2" stroke="#FF94E0"/>
<rect x="623.731" y="555.329" width="12" height="21.045" transform="rotate(-71.1633 623.731 555.329)" fill="#F1D9E2" stroke="#FF94E0"/>
<rect x="661.76" y="567.568" width="12" height="21.045" transform="rotate(-73.9501 661.76 567.568)" fill="#F1D9E2" stroke="#FF94E0"/>
<rect x="709.695" y="577.45" width="10.5148" height="35.1833" transform="rotate(-75.4104 709.695 577.45)" fill="#F1D9E2" stroke="#FF94E0"/>
<rect x="761.619" y="593.111" width="14.89" height="18.3196" transform="rotate(-77.0533 761.619 593.111)" fill="#F1D9E2" stroke="#FF94E0"/>
<rect x="799.282" y="599.142" width="11.8439" height="18.3196" transform="rotate(-77.0533 799.282 599.142)" fill="#F1D9E2" stroke="#FF94E0"/>
<rect x="834.416" y="608.638" width="21.5879" height="22.5534" transform="rotate(-77.0533 834.416 608.638)" fill="#F1D9E2" stroke="#FF94E0"/>
<rect x="855.824" y="568.204" width="14.3211" height="17.1878" transform="rotate(-91.253 855.824 568.204)" fill="#F1D9E2" stroke="#FF94E0"/>
<path d="M962.584 667.277L962.777 667.567L963.116 667.486L973.295 665.062L994.279 693.367L987.979 697.418L945.497 673.979L960.849 664.675L962.584 667.277Z" fill="#F1D9E2" stroke="#FF94E0"/>
<path d="M180.975 197.815L180.023 210.655L172.185 213.883L158.585 193.97L161.218 189.142L180.975 197.815Z" fill="#F1D9E2" stroke="#FF94E0"/>
<path d="M893 552.506L975.007 553.495L975.992 619.441L936.055 615.002L935.5 614.941L935.5 615.5L935.5 626.946L893 622.549L893 552.506Z" fill="#F1D9E2" stroke="#FF94E0"/>
</svg>
